#!OML:ASF E:\motion texture\Top Level 1\Subject 1\Session 1\male.ASF
:FULLY-SPECIFIED
:DEGREES
367
root -21.645 17.6809 2.72844 459.062 -78.2672 -456.698
lowerback 2.05176 0.354458 8.88066
upperback -2.44889 0.782573 5.18834
thorax -3.65868 0.141419 0.387467
lowerneck -19.3303 -2.60771 -3.84415
upperneck 14.8717 -3.39411 4.64171
head 7.91874 -1.375 1.75367
rclavicle -7.33018e-016 -9.93923e-015
rhumerus -19.2498 14.051 -92.4319
rradius 62.8654
rwrist -4.69048
rhand -12.4993 -10.254
rfingers 7.12502
rthumb 13.5758 -39.7914
lclavicle -7.33018e-016 -9.93923e-015
lhumerus -41.9051 -11.9319 93.6109
lradius 43.6888
lwrist -2.5124
lhand -7.67846 3.79008
lfingers 7.12502
lthumb 18.2182 32.9569
rfemur -21.204 2.48748 35.9106
rtibia 29.2163
rfoot 174.077 174.966
rtoes 22.206
lfemur -24.6972 2.64976 -3.36021
ltibia 83.7993
lfoot 740.232 -44.5676
ltoes -4.86074
368
root -21.789 17.7131 2.70277 458.495 -77.9336 -456.403
lowerback 2.28377 0.525796 9.03999
upperback -2.38039 1.04151 5.21217
thorax -3.70227 0.265433 0.310283
lowerneck -19.1504 -2.73979 -3.92435
upperneck 14.9016 -3.60055 4.83949
head 7.91304 -1.46111 1.80799
rclavicle 9.34288e-015 4.77083e-015
rhumerus -17.3744 14.9124 -92.3867
rradius 64.0371
rwrist -4.70973
rhand -12.5345 -10.1862
rfingers 7.12502
rthumb 13.5419 -39.7258
lclavicle 9.34288e-015 4.77083e-015
lhumerus -42.999 -11.9501 93.2964
lradius 43.6745
lwrist -2.73192
lhand -7.54968 3.53974
lfingers 7.12502
lthumb 18.3421 32.695
rfemur -19.9344 2.64651 36.4223
rtibia 28.4417
rfoot 173.866 174.683
rtoes 21.8788
lfemur -28.2252 3.43007 -3.00753
ltibia 87.7406
lfoot 741.386 -72.3014
ltoes -4.77574
369
root -21.9335 17.7503 2.67913 458.315 -77.7154 -456.434
lowerback 2.45389 0.731818 9.09342
upperback -2.34352 1.33887 5.19211
thorax -3.74088 0.411318 0.242838
lowerneck -18.9626 -2.89472 -4.02291
upperneck 14.9606 -3.83793 5.04916
head 7.91838 -1.56209 1.86562
rclavicle -2.60905e-016 3.1408e-014
rhumerus -15.5222 15.6632 -92.2198
rradius 65.1185
rwrist -4.68288
rhand -12.6182 -10.0708
rfingers 7.12502
rthumb 13.4612 -39.6158
lclavicle -2.60905e-016 3.1408e-014
lhumerus -44.1372 -12.0646 92.984
lradius 43.8431
lwrist -2.81895
lhand -7.39255 3.27562
lfingers 7.12502
lthumb 18.4932 32.4166
rfemur -18.7267 2.85388 36.7956
rtibia 27.6646
rfoot 173.696 174.42
rtoes 21.4845
lfemur -31.7976 4.24993 -2.88695
ltibia 88.8225
lfoot 911.416 -79.7597
ltoes -5.10935
370
root -22.0795 17.7909 2.65916 458.611 -77.5637 -456.909
lowerback 2.57391 0.975842 9.11424
upperback -2.31688 1.68036 5.1318
thorax -3.75763 0.580673 0.148678
lowerneck -18.7862 -3.06418 -4.13963
upperneck 15.0395 -4.09556 5.27807
head 7.93494 -1.67179 1.93017
rclavicle -1.04362e-015 7.55382e-015
rhumerus -13.6875 16.3252 -91.9497
rradius 66.1068
rwrist -4.62946
rhand -12.7317 -9.93983
rfingers 7.12502
rthumb 13.3518 -39.492
lclavicle -1.04362e-015 7.55382e-015
lhumerus -45.3042 -12.2364 92.6491
lradius 44.1829
lwrist -2.69965
lhand -7.12549 3.06096
lfingers 7.12502
lthumb 18.7501 32.1773
rfemur -17.5463 3.12114 37.0824
rtibia 26.8988
rfoot 173.544 174.2
rtoes 21.1008
lfemur -35.3508 5.11707 -2.94725
ltibia 86.7367
lfoot 914.595 -51.8513
ltoes -5.58129
371
root -22.2271 17.8327 2.64354 459.218 -77.4299 -457.7
lowerback 2.68124 1.24045 9.16743
upperback -2.28821 2.04862 5.04116
thorax -3.76021 0.762875 0.00350841
lowerneck -18.6384 -3.23906 -4.25818
upperneck 15.1339 -4.36118 5.50863
head 7.96298 -1.78482 1.99445
rclavicle 7.33018e-015 3.33958e-014
rhumerus -11.8804 16.9247 -91.5931
rradius 67.0277
rwrist -4.5843
rhand -12.85 -9.81176
rfingers 7.12502
rthumb 13.2378 -39.3714
lclavicle 7.33018e-015 3.33958e-014
lhumerus -46.4938 -12.4154 92.2675
lradius 44.684
lwrist -2.37033
lhand -6.74889 2.93175
lfingers 7.12502
lthumb 19.1123 32.0127
rfemur -16.3511 3.42274 37.3383
rtibia 26.1379
rfoot 173.401 174.019
rtoes 20.7321
lfemur -38.8426 5.99576 -3.12584
ltibia 82.7409
lfoot 914.32 -23.835
ltoes -6.10129
372
root -22.3761 17.8737 2.63116 460.037 -77.2888 -458.711
lowerback 2.78344 1.5194 9.27246
upperback -2.24536 2.43587 4.92936
thorax -3.73899 0.954095 -0.193064
lowerneck -18.5291 -3.41145 -4.36705
upperneck 15.2223 -4.62449 5.73618
head 7.99626 -1.89586 2.0561
rclavicle 2.33572e-015 -1.88845e-014
rhumerus -10.0881 17.4512 -91.1562
rradius 67.8863
rwrist -4.55855
rhand -12.9315 -9.73227
rfingers 7.12502
rthumb 13.1593 -39.297
lclavicle 2.33572e-015 -1.88845e-014
lhumerus -47.6776 -12.5874 91.8243
lradius 45.3169
lwrist -1.87787
lhand -6.26431 2.87676
lfingers 7.12502
lthumb 19.5783 31.911
rfemur -15.1409 3.75971 37.5974
rtibia 25.3922
rfoot 173.245 173.848
rtoes 20.4116
lfemur -42.2686 6.85823 -3.37351
ltibia 79.0569
lfoot 913.702 4.22127
ltoes -6.42104
373
root -22.5263 17.9122 2.62186 460.953 -77.1367 -459.845
lowerback 2.90795 1.79694 9.43264
upperback -2.19755 2.82592 4.79844
thorax -3.71882 1.14517 -0.440334
lowerneck -18.4276 -3.57162 -4.46247
upperneck 15.294 -4.87235 5.95459
head 8.02486 -1.99969 2.11432
rclavicle -1.69588e-015 -2.127e-014
rhumerus -8.34679 17.896 -90.671
rradius 68.7016
rwrist -4.55589
rhand -12.9579 -9.64962
rfingers 7.12502
rthumb 13.1338 -39.216
lclavicle -1.69588e-015 -2.127e-014
lhumerus -48.878 -12.7174 91.3068
lradius 46.0652
lwrist -1.32214
lhand -5.76598 2.87368
lfingers 7.12502
lthumb 20.0573 31.8584
rfemur -13.9055 4.11741 37.865
rtibia 24.6668
rfoot 173.07 173.67
rtoes 20.1642
lfemur -45.6139 7.66469 -3.67173
ltibia 76.4518
lfoot 913.017 5.3501
ltoes -6.60959
374
root -22.6779 17.9479 2.61527 461.933 -76.974 -461.075
lowerback 3.04838 2.07005 9.63895
upperback -2.12866 3.21222 4.65544
thorax -3.6789 1.3344 -0.725349
lowerneck -18.3543 -3.72247 -4.55499
upperneck 15.3437 -5.106 6.17206
head 8.0509 -2.09629 2.17321
rclavicle -1.65053e-014 1.66979e-014
rhumerus -6.62166 18.2705 -90.1321
rradius 69.4508
rwrist -4.57728
rhand -12.9388 -9.555
rfingers 7.12502
rthumb 13.1522 -39.1202
lclavicle -1.65053e-014 1.66979e-014
lhumerus -50.0533 -12.7946 90.7148
lradius 46.892
lwrist -0.763324
lhand -5.3243 2.88873
lfingers 7.12502
lthumb 20.4818 31.8284
rfemur -12.6394 4.49357 38.1401
rtibia 23.9643
rfoot 172.896 173.474
rtoes 19.9114
lfemur -48.8643 8.3963 -4.00583
ltibia 74.1286
lfoot 912.475 5.96625
ltoes -6.47001
375
root -22.8296 17.9805 2.61002 462.825 -76.8231 -462.231
lowerback 3.21224 2.32467 9.85488
upperback -2.05558 3.57754 4.50298
thorax -3.64388 1.5131 -1.02514
lowerneck -18.2977 -3.86356 -4.63773
upperneck 15.3721 -5.3242 6.37515
head 8.07191 -2.1862 2.22738
rclavicle -1.23371e-014 -3.78685e-014
rhumerus -4.92984 18.5736 -89.5541
rradius 70.1388
rwrist -4.62828
rhand -12.8705 -9.42731
rfingers 7.12502
rthumb 13.2181 -38.9882
lclavicle -1.23371e-014 -3.78685e-014
lhumerus -51.2093 -12.8208 90.0599
lradius 47.7715
lwrist -0.234129
lhand -5.02081 2.88823
lfingers 7.12502
lthumb 20.7734 31.7963
rfemur -11.3741 4.87579 38.4058
rtibia 23.2911
rfoot 172.726 173.237
rtoes 19.6409
lfemur -52.0486 9.00949 -4.37693
ltibia 72.0681
lfoot 912.034 6.31588
ltoes -6.15103
376
root -22.9825 18.0106 2.60653 463.683 -76.6978 -463.382
lowerback 3.39358 2.5646 10.0642
upperback -1.9681 3.92462 4.34273
thorax -3.60039 1.68401 -1.32908
lowerneck -18.2618 -3.99718 -4.71883
upperneck 15.3831 -5.52833 6.56675
head 8.09014 -2.27012 2.27892
rclavicle 4.69008e-015 -3.79182e-014
rhumerus -3.26057 18.8145 -88.9342
rradius 70.7532
rwrist -4.70065
rhand -12.7792 -9.2736
rfingers 7.12502
rthumb 13.3061 -38.8288
lclavicle 4.69008e-015 -3.79182e-014
lhumerus -52.3238 -12.8045 89.3591
lradius 48.6631
lwrist 0.269451
lhand -4.87162 2.82082
lfingers 7.12502
lthumb 20.9168 31.7131
rfemur -10.0941 5.25828 38.6375
rtibia 22.6437
rfoot 172.567 172.977
rtoes 19.3433
lfemur -55.127 9.50316 -4.78841
ltibia 70.2855
lfoot 911.674 6.49367
ltoes -5.65801
377
root -23.1358 18.0382 2.60384 464.424 -76.6018 -464.422
lowerback 3.58527 2.7827 10.2507
upperback -1.88115 4.24361 4.18334
thorax -3.56317 1.84165 -1.619
lowerneck -18.2289 -4.12242 -4.79689
upperneck 15.3825 -5.71597 6.73458
head 8.10368 -2.34836 2.324
rclavicle -3.6317e-014 -6.94628e-014
rhumerus -1.63077 19.0135 -88.2752
rradius 71.2959
rwrist -4.79926
rhand -12.6737 -9.12023
rfingers 7.12502
rthumb 13.4077 -38.6688
lclavicle -3.6317e-014 -6.94628e-014
lhumerus -53.4009 -12.7446 88.6271
lradius 49.5479
lwrist 0.727677
lhand -4.83719 2.70279
lfingers 7.12502
lthumb 20.9498 31.5914
rfemur -8.83509 5.63012 38.8372
rtibia 22.04
rfoot 172.412 172.693
rtoes 18.9973
lfemur -58.1179 9.86571 -5.22321
ltibia 68.7677
lfoot 911.39 6.5944
ltoes -5.06716
378
root -23.2898 18.0633 2.60202 465.096 -76.5327 -465.389
lowerback 3.77447 2.98467 10.4112
upperback -1.80089 4.54051 4.02892
thorax -3.53222 1.9888 -1.88892
lowerneck -18.1885 -4.23774 -4.88045
upperneck 15.3737 -5.88417 6.88278
head 8.11191 -2.41985 2.36594
rclavicle -4.68464e-015 -2.26615e-014
rhumerus -0.0477106 19.1786 -87.5792
rradius 71.7598
rwrist -4.91456
rhand -12.571 -8.9766
rfingers 7.12502
rthumb 13.5067 -38.5186
lclavicle -4.68464e-015 -2.26615e-014
lhumerus -54.4368 -12.657 87.885
lradius 50.4014
lwrist 1.16338
lhand -4.8332 2.57685
lfingers 7.12502
lthumb 20.9537 31.4651
rfemur -7.60953 5.98922 39.0024
rtibia 21.479
rfoot 172.262 172.403
rtoes 18.6116
lfemur -61.0241 10.1169 -5.66889
ltibia 67.5093
lfoot 911.155 6.66313
ltoes -4.49324
379
root -23.4445 18.0858 2.60154 465.665 -76.4741 -466.244
lowerback 3.96195 3.16655 10.5663
upperback -1.73513 4.81164 3.88596
thorax -3.51651 2.12224 -2.14332
lowerneck -18.1406 -4.34125 -4.96054
upperneck 15.3701 -6.0303 6.99494
head 8.11816 -2.48426 2.39817
rclavicle -1.45082e-014 -5.11871e-014
rhumerus 1.48064 19.3251 -86.8576
rradius 72.1369
rwrist -5.04161
rhand -12.4802 -8.84454
rfingers 7.12502
rthumb 13.5942 -38.3807
lclavicle -1.45082e-014 -5.11871e-014
lhumerus -55.4393 -12.5417 87.1449
lradius 51.215
lwrist 1.5712
lhand -4.82825 2.47085
lfingers 7.12502
lthumb 20.9584 31.3585
rfemur -6.42593 6.30781 39.1478
rtibia 20.9616
rfoot 172.118 172.137
rtoes 18.1991
lfemur -63.8447 10.2653 -6.09753
ltibia 66.5004
lfoot 911 6.74023
ltoes -3.95935
